<svg xmlns="http://www.w3.org/2000/svg" viewBox="0 0 279.64 384.28" ><defs><style>.cls-1{fill:lightcoral;}</style></defs><title>Asset 4</title><g id="Layer_2" data-name="Layer 2"><g id="Layer_1-2" data-name="Layer 1"><g id="Layer_1-2-2" data-name="Layer 1-2"><path class="cls-1" d="M10.84,0H200.59a46.09,46.09,0,0,1,4.19,3.71q35.49,40.46,70.94,80.92a15,15,0,0,1,3.91,10.54q-.09,135.95-.06,271.88c0,11.1-6.1,17.23-17.1,17.23H17.22c-4.43,0-8.43-.81-11.81-3.79C1.12,376.7.05,371.79.06,366.28Q.14,192.51,0,18.71C0,10,2.78,3.66,10.84,0Zm189,100.47v.39a12.53,12.53,0,0,0,.91,1.16c3.68,4.08,4.81,8.72,2.71,13.87s-6.26,7.27-11.43,7.88c-5.94.7-11.88-2.94-13.72-8.27a12.87,12.87,0,0,1,5.24-15.42c6.26-3.71,6.25-3.71,6.25-11.17V20.3c0-4.69-.26-5-4.83-5H21.06c-4.58,0-4.85.26-4.86,4.93V250.49c0,4.66.27,4.92,4.87,4.92q118.86,0,237.73.07c3.63,0,4.74-1.26,4.74-4.8q-.14-72.93-.07-145.86c0-4.58-.24-4.79-5-4.79H203c-1,0-2.21-.37-3.18.44Zm-77,169.86c-3.12,0-6.26.16-9.37,0s-4.48,1-5.33,3.92c-2.85,9.84-5.94,19.61-8.93,29.4-5.7,18.35-11.21,36.78-17,55.14-1,3.27-.31,4.27,3,4.12,4.24-.19,8.5-.15,12.75,0,2.82.09,4.34-.89,5-3.76,1.32-5.46,3.07-10.81,4.43-16.26.73-2.95,2.3-4.07,5.29-4,6.5.14,13,.11,19.5,0,2.67,0,4.1,1,4.82,3.61,1.53,5.53,3.39,11,4.91,16.52.74,2.7,2.07,4,5,3.88,4.75-.16,9.5-.11,14.25,0,2.71.06,3.68-.72,2.67-3.53-1.27-3.52-2.23-7.15-3.35-10.73-7.66-24.7-15.37-49.37-22.92-74.1-1-3.22-2.57-4.5-5.87-4.25-2.92.22-5.93,0-8.93,0Zm76.08,46.51c0-14.12-.06-28.23,0-42.35,0-3.05-1-4.32-4.13-4.2-4.24.17-8.49.1-12.74,0-2.45-.05-3.67.81-3.66,3.47q.06,42.72,0,85.44c0,2.85,1.31,3.71,3.91,3.65,3.62-.09,7.24,0,10.86,0,5.71,0,5.72,0,5.72-5.55q0-20.22,0-40.46Z"/><path class="cls-1" d="M116,102.59c4,0,8,.15,12,0,3.17-.15,4.63,1.12,5.56,4.15,7.56,24.72,15.28,49.4,22.94,74.09,2.85,9.19,5.61,18.4,8.57,27.55,1,3.06.49,4.34-3,4.25-6.62-.18-13.25-.13-19.87,0-2.4,0-3.62-.88-4.28-3.19-2-6.84-4.21-13.6-6.06-20.47-.88-3.26-2.59-4.34-5.88-4.25-7.37.2-14.75.16-22.12,0-2.87-.06-4.32,1-5,3.77-1.7,6.65-3.76,13.22-5.39,19.89-.8,3.27-2.41,4.41-5.75,4.27-5.74-.25-11.5,0-17.25-.08-4.39,0-4.63-.3-3.37-4.47q7.45-24.57,15-49.1c5.22-17.08,10.56-34.12,15.57-51.26,1.17-4,3.08-5.5,7.14-5.17C108.5,102.82,112.27,102.59,116,102.59Zm-1.19,22c-3,12.89-7,25.5-10.31,38.27-.67,2.55,1.24,2.55,2.93,2.56,5.24,0,10.49-.07,15.73,0,2.56.06,3.41-.73,2.64-3.31-3.7-12.35-7.49-24.75-11-37.49Z"/><path class="cls-1" d="M203.75,172.52v34.83c0,5.07-.14,5.16-5.32,5.17-5.37,0-10.75-.19-16.1.07-3.75.19-4.36-1.69-4.35-4.77.06-15.85,0-31.7,0-47.55,0-7.74.09-15.48,0-23.22-.06-3.37,1.21-4.68,4.63-4.56,5.61.2,11.24.18,16.85,0,3.3-.1,4.36,1.3,4.34,4.45C203.69,148.81,203.75,160.66,203.75,172.52Z"/><path class="cls-1" d="M121.78,286.44c1.3.69,1.34,1.78,1.6,2.68,2.89,10.3,5.65,20.64,8.67,30.91,1,3.24.16,4.32-3.15,4.21-4.6-.15-9.21-.06-13.82-.05-2.39,0-3.46-.81-2.72-3.42,3.11-11,6.17-22,8.67-33.22C121.11,287.22,121.43,287,121.78,286.44Z"/></g></g></g></svg>