<svg xmlns="http://www.w3.org/2000/svg" viewBox="0 0 278.83 384.04"><defs><style>.cls-1{fill:lightcoral;}</style></defs><title>Asset 5</title><g id="Layer_2" data-name="Layer 2"><g id="Layer_1-2" data-name="Layer 1"><path class="cls-1" d="M12,384c-9.07-3.27-12-9.93-12-19.26Q.22,191.17.1,17.55C.1,8.2,4.27,2.19,12,.43A20.11,20.11,0,0,1,16.5.06Q105.93,0,195.37,0a10.82,10.82,0,0,1,8.77,4.05q35.63,40.82,71.4,81.51a12.68,12.68,0,0,1,3.29,8.85q0,136.68,0,273.37c0,8.37-4.42,13.39-11.87,16.26ZM139.53,255.77q60.18,0,120.35.06c3.11,0,3.94-.82,3.94-3.94q-.15-74.23,0-148.47c0-3-.79-3.77-3.75-3.75-20,.13-40,.07-60,.06-8.09,0-10.39-2.33-10.39-10.54,0-23.38-.08-46.75.08-70.12,0-3.37-.89-4.08-4.14-4.08q-83.24.16-166.47,0c-3.45,0-4.06,1.05-4.06,4.21q.13,116.24,0,232.47c0,3.21.67,4.2,4.08,4.19C59.29,255.72,99.41,255.77,139.53,255.77Zm68.65,111.5c10.43-.34,18.61-1.78,25.79-6.66a25.7,25.7,0,0,0,.92-42.11c-4.87-3.62-10.48-5.74-16-7.93-4-1.55-8-3-11.25-5.82-3.74-3.26-3.84-8.23-.27-11.45a12.35,12.35,0,0,1,7.51-3A45.12,45.12,0,0,1,229,291.34c2.76.64,6.06,3.46,7.86,2.09s2-5.38,2.85-8.24c2.3-8.09,2.32-8.26-5.86-10.2-12.85-3-25.61-3.37-37.39,3.71-16.07,9.65-16.9,30.49-1.88,41.62,5,3.7,10.68,5.88,16.41,8,3.63,1.36,7.25,2.79,10.17,5.44,4.92,4.48,3.94,11.66-2,14.63a19,19,0,0,1-8,1.85,48.6,48.6,0,0,1-21.8-4.53c-2.1-.95-2.8-.44-3.24,1.59a93.17,93.17,0,0,1-2.67,10.9c-1.07,3.09.13,4.16,2.81,5.13A67.35,67.35,0,0,0,208.18,367.27Zm-72.64,0c8,.1,16.51-1.75,22.56-5,18-9.79,19-33.75,1.89-44.95-4.52-3-9.54-4.85-14.54-6.8-3.72-1.45-7.48-2.86-10.64-5.41-4.71-3.81-4.23-10,1-13a14.5,14.5,0,0,1,6.42-1.85,40.29,40.29,0,0,1,19,3.06c1.85.8,2.84.85,3.38-1.43.95-4,2.1-8,3.27-11.9.47-1.59.24-2.55-1.46-3.13-13.68-4.66-27.39-5.84-40.82.55-8.85,4.21-14.09,11.3-14.84,21.34-.77,10.23,4.08,17.42,12.25,22.84,4.61,3.06,9.77,4.95,14.91,6.89,3.63,1.37,7.24,2.82,10.13,5.51a8.66,8.66,0,0,1-1.77,14.24,18.16,18.16,0,0,1-8.27,2.08A45.66,45.66,0,0,1,117,346c-3.07-1.42-3.79-.46-4.32,2.31a87.85,87.85,0,0,1-2.57,10.53c-.77,2.38,0,3.34,2.12,4.15C119.52,365.86,127.13,367,135.54,367.29Zm-59,0c6.88-.29,13.46-.81,19.87-2.77,2.16-.66,3.06-1.66,2.5-4q-1.31-5.46-2.17-11c-.29-1.92-1-2.19-2.7-1.58a50.41,50.41,0,0,1-10.26,2c-19.91,2.69-33.73-9.22-34-29.26-.19-16.71,8.38-27.76,23.67-30.12a40.12,40.12,0,0,1,20,2c2,.73,3.08.8,3.56-1.76a94.33,94.33,0,0,1,2.88-11.23c.68-2.14-.06-2.88-1.9-3.51a57.72,57.72,0,0,0-13.19-2.66c-10.9-1-21.46.28-31.41,5.05-18.83,9-28.53,30-24.51,52.4,3.13,17.53,13,29.07,30.14,34.2A64.08,64.08,0,0,0,76.57,367.31Z"/><path class="cls-1" d="M89.65,152c9.17,2.9,11.58,9.89,11.51,18.43,0,5.39-1,10.69-1.74,16A53.12,53.12,0,0,0,99,196.89c.44,7.37,4.61,11.57,12,11.55,3.17,0,4,.88,3.85,4-.26,5.3-.06,5.31-5.54,5.14-14-.43-21.57-8.22-21.73-22.2-.07-6.28,1.26-12.41,1.87-18.61.22-2.23.52-4.47.58-6.7.23-9.1-2.14-12.22-11-13.78-3.73-.65-1.82-3.2-2.07-4.91-.21-1.48-.82-3.3,2.11-3.73,8.82-1.28,11.13-4.33,11.05-13.28,0-5.77-1.14-11.42-1.85-17.11a67.82,67.82,0,0,1-.58-10.45c.33-11.18,7-18.4,18.11-19.74,1-.11,2-.2,3-.28,6.14-.49,6-.49,6.09,5.66,0,2.29-.47,3.18-3,3.33-9.49.58-12.7,4.2-12.89,13.7-.12,6,1.31,11.9,1.83,17.86.14,1.62.36,3.23.41,4.85C101.42,143.09,99.27,146.83,89.65,152Z"/><path class="cls-1" d="M183,152c-12.34-5.26-12.41-14-11-26.37.67-5.7,2-11.34,1.73-17.11-.38-8.49-3.81-12-12.05-12.81-1.25-.12-3.24.63-3.59-1.08a14.74,14.74,0,0,1,.15-7.4c.23-.75,1.29-.59,2-.59,4.52,0,9,.39,13.2,2.21,8.26,3.56,11.49,10.31,11.64,18.84.15,8-1.93,15.84-2.4,23.82-.08,1.24-.22,2.49-.23,3.74,0,7.79,2.85,11.43,10.53,12.29,2.78.31,3.08,1.57,2.7,3.56s1.7,4.69-2.53,5.25c-8,1.07-11.2,5.19-10.61,13.42.47,6.46,1.46,12.89,2.16,19.34a51.9,51.9,0,0,1,.38,6.35c-.25,18.22-12.78,22.47-25.3,22.13-1.5,0-2-.67-1.93-2a17.55,17.55,0,0,0,0-3c-.37-2.87.34-4.12,3.71-4.14,7.13,0,11-3.72,12-10.83.87-6.29-.63-12.43-1.43-18.61a64.42,64.42,0,0,1-.63-11.19C171.87,160.21,175,154.6,183,152Z"/></g></g></svg>