<svg xmlns="http://www.w3.org/2000/svg" viewBox="0 0 278.83 384.04"><defs><style>.cls-1{fill:lightcoral;}</style></defs><title>Asset 6</title><g id="Layer_2" data-name="Layer 2"><g id="Layer_1-2" data-name="Layer 1"><path class="cls-1" d="M12,384c-9.06-3.28-12-9.93-12-19.26Q.22,191.16.1,17.55C.1,8.2,4.28,2.18,12,.43A20.11,20.11,0,0,1,16.5.06Q105.95,0,195.37,0a10.81,10.81,0,0,1,8.77,4.05q35.63,40.83,71.4,81.51a12.64,12.64,0,0,1,3.29,8.86q0,136.68,0,273.36c0,8.37-4.42,13.39-11.87,16.26ZM139.59,255.77q60.18,0,120.36,0c2.73,0,3.89-.44,3.88-3.6q-.16-74.43,0-148.86c0-3-.94-3.7-3.81-3.69-20.12.12-40.24.07-60.36.06-7.44,0-10-2.51-10-9.85,0-23.5-.1-47,.1-70.49,0-3.76-1.1-4.41-4.58-4.4q-82.86.16-165.73,0c-3.32,0-4.4.69-4.39,4.25q.16,116.23,0,232.47c0,3.31.83,4.13,4.14,4.12C59.35,255.72,99.47,255.77,139.59,255.77ZM36.54,274c-3.48.31-9.32.87-15.17,1.31-1.9.15-2.54.95-2.54,2.84q.06,39.17,0,78.35c0,1.88.62,2.64,2.54,2.81,11.23,1,22.46,1.52,33.65-.12,17.74-2.59,31.36-10.56,36.8-28.88a57.53,57.53,0,0,0,1.94-18.92c-.69-16.93-10.44-29.63-26.63-34.62C57.92,273.91,48.44,273.73,36.54,274Zm147.58,41.89a61.48,61.48,0,0,0-1.2-11.14c-3.64-15.3-12.21-26.34-27.92-30.12-16.39-3.95-31.11-.57-42.37,12.8-8.26,9.8-10.77,21.59-9.83,34,1.2,15.81,7.4,29.05,22.7,35.65,15.07,6.51,30,5,43.21-5C180.44,343.26,183.82,330.3,184.12,315.87Zm53.58,44.8c6-.29,12.34-.71,18.5-2.62,2-.63,2.9-1.51,2.36-3.73a98.42,98.42,0,0,1-2-9.9c-.29-2.18-1.1-2.31-2.93-1.69a47,47,0,0,1-12.54,2c-13.51.72-24-6.5-27.12-18.75a37.07,37.07,0,0,1-.41-16c2.09-11.4,9.89-18.89,21.28-20.57a39.6,39.6,0,0,1,18.81,1.9c2,.66,2.63.31,3.06-1.64.75-3.41,1.65-6.79,2.65-10.13.66-2.17-.08-3.1-2.15-3.77a55.34,55.34,0,0,0-12.84-2.42c-25.15-2-48.81,10.92-51.37,39.86-1.75,19.72,6.39,38.56,27.67,45.1C226.12,360,231.72,360.43,237.7,360.67Z"/><path class="cls-1" d="M134.21,173.48q32.43,0,64.86,0a17.39,17.39,0,0,1,4.09.3,4.86,4.86,0,0,1,0,9.46,17,17,0,0,1-3.71.28H68.17a17,17,0,0,1-3.35-.2,4.63,4.63,0,0,1-4.08-4.66c-.07-2.78,1.51-4.44,4.13-5a17.13,17.13,0,0,1,3.73-.18Z"/><path class="cls-1" d="M133.82,224.16H69a23.61,23.61,0,0,1-3.37-.07c-3-.43-4.92-2-4.83-5.17.08-3,2-4.44,4.8-4.79a27,27,0,0,1,3.37-.08H198.66c5.82,0,8.4,1.64,8.26,5.22s-2.56,4.89-8.23,4.89Z"/><path class="cls-1" d="M133.84,144H68.23a10,10,0,0,1-4.43-.5,4.69,4.69,0,0,1-3-5.06,4.43,4.43,0,0,1,3.69-4.18,19.93,19.93,0,0,1,4.09-.32H199.76c4.83.06,7.28,1.84,7.17,5.19-.11,3.2-2.51,4.88-7.1,4.88Z"/><path class="cls-1" d="M87.19,84C85.06,92.73,83,101.18,81,109.64c-1,4-4.34,5.76-8.15,4.33-1.36-.5-1.24-1.78-1.49-2.77-2.77-11.14-5.55-22.28-8.11-33.47-.22-1-2.26-3.36.51-3.42,2.23,0,5.81-2.24,6.74,2.13,1.8,8.55,3.5,17.12,5.24,25.67.12.56-.07,1.28,1,1.65C78.81,95,81,86.2,82.91,77.38c.57-2.65,1.66-3.25,4.22-3.39,3.47-.18,4.66,1,5.26,4.39,1.55,8.69,3.57,17.3,5.48,26.33,2.11-9.34,4.14-18.32,6.19-27.3.63-2.77,4.77-4.59,7.1-3.16,1.06.65.56,1.56.36,2.32Q106.8,94.29,102,112c-1,3.65-3.91,1.48-5.92,2-2.18.55-2.7-1-3.07-2.71C91.12,102.29,89.18,93.32,87.19,84Z"/><path class="cls-1" d="M148,93.93c8.25,0,16.49,0,24.74,0a13.67,13.67,0,0,1,4,.48,4.47,4.47,0,0,1,3.24,4.9,4.4,4.4,0,0,1-3.5,4.32,17.37,17.37,0,0,1-4.08.38q-24.73,0-49.49,0c-.75,0-1.5,0-2.25,0-3.35-.31-5.41-2.28-5.24-5.16.19-3.17,2.21-4.58,5.16-4.88a30,30,0,0,1,3,0Z"/><path class="cls-1" d="M38.19,316.92c0-8.11.14-16.23-.08-24.34-.07-2.87,1-3.8,3.61-3.76,3.49.06,7-.27,10.46.19,12.61,1.7,20.29,10.05,21.19,22.82a47.2,47.2,0,0,1-.54,11.56c-2.32,13.17-11.29,21.09-24.73,21.7-9.91.44-9.91.44-9.91-9.44Z"/><path class="cls-1" d="M163.86,316.38c-.19,7.28-1.12,13.28-4.11,18.8-3.48,6.42-8.75,10.23-16.18,10.27-7.2.05-12.93-3.22-16.19-9.6-6.52-12.76-6.58-25.9.46-38.32s23.45-12.27,31.09-.1C162.78,303.56,163.82,310.41,163.86,316.38Z"/></g></g></svg>