<svg xmlns="http://www.w3.org/2000/svg" viewBox="0 0 258.25 355.67"><defs><style>.cls-1{fill:lightcoral;}</style></defs><title>Asset 1</title><g id="Layer_2" data-name="Layer 2"><g id="Layer_1-2" data-name="Layer 1"><path class="cls-1" d="M247.18,355.67H11c-7.25-2.75-11-7.74-11-15.76Q.09,177.75.05,15.57C.05,5.71,5.74.05,15.58.05q82.47,0,165,0a10.67,10.67,0,0,1,8.71,4q31.94,36.64,64.09,73.11a18.26,18.26,0,0,1,4.91,13.09q-.18,123.81,0,247.6C258.26,346.45,255.58,352.64,247.18,355.67ZM176.86,89.6c-1.54-2.66-1.25-5.2-1.25-7.71,0-21.53-.06-43,.07-64.58,0-2.81-.83-3.41-3.49-3.4q-77.43.11-154.86,0c-2.87,0-3.39.93-3.39,3.54q.09,108,0,216c0,3.06,1,3.54,3.77,3.52,14.81-.12,29.63-.06,44.44-.06H240.6c2,0,3.69.29,3.68-2.87q-.15-69.43,0-138.88c0-2.47-1-2.82-3.08-2.79-7.63.09-15.28.19-22.91,0-3.13-.09-4,.73-4,4,.12,32.53,0,65.05.14,97.57,0,3.08-.83,3.88-3.88,3.87q-84.72-.13-169.44,0c-3.14,0-3.77-.91-3.76-3.89q.15-50.16,0-100.34c0-3.22.87-4,4-3.94q65.46.15,130.9.07ZM212,305.65c3.78,7.53,7.35,14.52,10.78,21.58.86,1.78,1.84,2.65,3.92,2.55,3.81-.16,7.64-.15,11.45,0,2.76.11,3.21-.54,1.75-3-5.72-9.64-11.24-19.39-16.94-29a4.05,4.05,0,0,1,0-4.73c5.22-8.85,10.33-17.77,15.45-26.69.61-1.05,1.58-2,1.49-3.66-4.52,0-9,.16-13.46-.07-2.51-.13-3.67.82-4.61,3-2.84,6.67-5.91,13.24-9,20.11-3.32-7-6.51-13.77-9.76-20.51-.47-1-.57-2.48-2.05-2.5-5.34-.07-10.68,0-16.52,0,5.9,10.48,11.37,20.38,17.06,30.15a5.12,5.12,0,0,1-.07,6c-5.33,9.06-10.49,18.22-15.67,27.37-.58,1-1.68,1.93-1.26,3.58,4.17,0,8.33-.2,12.47.06,3,.2,4.54-.73,5.71-3.56C205.57,319.44,208.76,312.79,212,305.65Zm-165.38,0c3.67,7.33,7.19,14.09,10.41,21,1.17,2.5,2.63,3.38,5.32,3.18,3.33-.24,6.7,0,10.06-.06,3.72,0,3.74,0,1.93-3.18-5.43-9.4-10.81-18.84-16.38-28.16-1.28-2.15-1.43-3.71-.08-5.91,3.93-6.4,7.58-13,11.33-19.48,1.88-3.26,3.75-6.54,5.93-10.35-2.17,0-3.74,0-5.3,0-3.92.06-8.76-1.24-11.52.58s-3.87,6.82-5.54,10.47c-1.78,3.89-3.4,7.85-5.25,12.15-3.46-7.28-6.68-14.06-9.92-20.82-.52-1.09-.75-2.42-2.5-2.4-5.14.07-10.28,0-15.87,0,.85,1.6,1.41,2.71,2,3.8C26.19,275.22,31,284,36.13,292.69c1.38,2.34,1.25,4-.08,6.27C30.7,308,25.55,317.17,20.33,326.3c-2,3.42-1.95,3.43,2.15,3.44,3.24,0,6.49-.17,9.71.05,2.57.18,3.93-.67,5-3.09C40.07,319.81,43.26,313,46.62,305.63Zm113.68-44c-7.11-.11-13.09.92-18.4,4.45-11.12,7.42-11.44,22.28-.66,30.14a39,39,0,0,0,8.89,4.63c3.12,1.22,6.33,2.24,9.15,4.11,2.48,1.64,4.14,3.79,3.64,6.93s-2.59,4.79-5.49,5.61c-4.49,1.27-8.91.47-13.38-.31-3-.51-6.28-3.79-8.39-2-1.92,1.65-1.54,5.84-2.56,8.77-.78,2.28.06,3.12,2,3.79,9.2,3.18,18.54,4,28,1.3,11.79-3.39,17.91-13.88,14.64-24.82-1.88-6.29-6.63-9.86-12.23-12.49-4.28-2-8.72-3.68-13-5.77-2.51-1.23-4.24-3.34-3.67-6.44s2.84-4.39,5.55-5.06c3.43-.86,6.89-.36,10.35.06,2.69.32,5.8,3.19,7.6,1.62s1.82-5.28,2.61-8.05a6.4,6.4,0,0,1,.28-1c.85-1.69.09-2.5-1.5-3.07A41,41,0,0,0,160.3,261.66Zm-76,34.54V325c0,4.73,0,4.74,4.57,4.74h27.75c9.94,0,9.88,0,9.64-10.12,0-2.1-.65-2.8-2.78-2.76-6.7.11-13.42-.15-20.11.12-3.28.13-4-1-4-4.07.15-15.72,0-31.45.11-47.18,0-2.38-.62-3.29-3.09-3.13a69.61,69.61,0,0,1-9,0c-2.4-.15-3.18.63-3.15,3.08C84.36,275.85,84.29,286,84.29,296.2ZM183.57,93.08c-8.1,0-16.2.09-24.3,0-2.34,0-3,.73-2.91,3q.18,8.51,0,17c-.05,2.16.74,2.76,2.81,2.76q24.48-.1,49,0c2.16,0,2.77-.77,2.73-2.84-.1-5.67-.13-11.34,0-17,.06-2.35-.79-2.91-3-2.88C199.77,93.15,191.67,93.08,183.57,93.08Zm-115.5,0c-8.21,0-16.43,0-24.64,0-1.87,0-2.67.38-2.63,2.46q.2,8.85,0,17.7c0,2,.71,2.54,2.61,2.53q24.46-.08,48.93,0c2,0,2.86-.5,2.81-2.7-.15-5.78-.16-11.57,0-17.35.06-2.25-.76-2.69-2.79-2.66C84.27,93.14,76.17,93.08,68.07,93.08Zm-.39,75c8.09,0,16.19-.07,24.28,0,2.28,0,3.3-.4,3.21-3-.2-5.66-.17-11.33,0-17,.07-2.34-.75-2.88-3-2.87q-24.27.12-48.55,0c-2.37,0-2.9.8-2.85,3,.14,5.66.16,11.33,0,17-.07,2.34.74,2.91,3,2.88C51.73,168,59.71,168.05,67.68,168.05Zm115.75-26.24c8.21,0,16.42-.06,24.62,0,2.07,0,2.86-.54,2.81-2.71-.13-5.78-.1-11.56,0-17.34,0-2-.69-2.61-2.62-2.6q-24.63.08-49.25,0c-1.92,0-2.65.63-2.62,2.6.1,5.78.12,11.56,0,17.34,0,2.17.74,2.73,2.81,2.71C167.25,141.75,175.34,141.81,183.43,141.81Zm-.17,52.31c8.21,0,16.42-.06,24.63,0,2.25,0,3-.69,3-3q-.2-8.5,0-17c0-2.17-.75-2.71-2.81-2.7q-24.45.1-48.9,0c-2.07,0-2.85.54-2.8,2.71.13,5.67.14,11.33,0,17-.06,2.29.74,3,3,3C167.31,194.06,175.29,194.12,183.26,194.12ZM67.71,141.81c8.21,0,16.42-.06,24.63,0,2,0,2.88-.35,2.82-2.63-.16-5.77-.15-11.56,0-17.34.06-2.21-.78-2.69-2.8-2.68q-24.28.09-48.56,0c-2.17,0-3.07.48-3,2.86.17,5.66.18,11.34,0,17-.07,2.41.85,2.85,3,2.82C51.76,141.74,59.74,141.81,67.71,141.81Zm58,0c8.21,0,16.41-.06,24.62,0,1.94,0,2.62-.54,2.59-2.53-.11-5.78-.12-11.56,0-17.34,0-2.09-.6-2.8-2.74-2.79q-24.45.12-48.89,0c-2.1,0-2.81.64-2.76,2.77.13,5.66.14,11.33,0,17-.06,2.28.66,2.94,2.92,2.91C109.55,141.73,117.64,141.81,125.73,141.81ZM68.34,171.54c-8.32,0-16.65.05-25,0-1.95,0-2.6.54-2.56,2.53.11,5.78.12,11.56,0,17.34-.05,2.08.54,2.81,2.7,2.8q24.45-.12,48.9,0c2.12,0,2.79-.64,2.74-2.76-.13-5.66-.14-11.33,0-17,0-2.24-.59-3-2.89-2.92C84.3,171.62,76.32,171.54,68.34,171.54Zm57.35,0c-8,0-16,.11-23.92-.07-2.66-.06-3.33.77-3.24,3.32.19,5.43.13,10.87,0,16.3,0,2.09.35,3.1,2.79,3.08q24.45-.13,48.89,0c2.21,0,2.74-.8,2.7-2.84-.11-5.66-.15-11.33,0-17,.07-2.36-.82-2.87-3-2.84C141.87,171.6,133.78,171.54,125.69,171.54Z"/></g></g></svg>