<svg xmlns="http://www.w3.org/2000/svg" viewBox="0 0 278.83 384.04"><defs><style>.cls-1{fill:lightcoral;}</style></defs><title>Asset 2</title><g id="Layer_2" data-name="Layer 2"><g id="Layer_1-2" data-name="Layer 1"><path class="cls-1" d="M12,384c-9.06-3.28-12-9.93-12-19.26Q.22,191.16.1,17.55C.1,8.2,4.27,2.18,12,.43A20.11,20.11,0,0,1,16.5.06Q105.93,0,195.37,0a10.81,10.81,0,0,1,8.77,4.05q35.63,40.83,71.4,81.51a12.62,12.62,0,0,1,3.29,8.86q0,136.68,0,273.36c0,8.37-4.42,13.39-11.87,16.26ZM139.47,255.76q60.18,0,120.36.07c3,0,4-.67,4-3.87q-.16-74.24,0-148.48c0-3.31-1.13-3.83-4.08-3.81-20.12.12-40.24.07-60.36.06-7.14,0-9.7-2.59-9.71-9.73,0-23.75-.05-47.49.06-71.24,0-2.88-.64-3.77-3.67-3.76q-83.61.13-167.23,0c-3,0-3.74.81-3.74,3.75q.12,116.61,0,233.22c0,3.22,1,3.87,4,3.86Q79.29,255.68,139.47,255.76ZM254,354c.44-1.61-.66-2.49-1.25-3.51-5.47-9.52-10.91-19.05-16.55-28.47a4.8,4.8,0,0,1,0-5.7c5.29-8.9,10.42-17.9,15.6-26.86,2-3.52,2-3.53-2.19-3.54-3.37,0-6.76.21-10.11-.07-2.61-.21-3.76.88-4.71,3.11-2.87,6.69-5.92,13.29-9.12,20.41-3.4-7.16-6.58-13.88-9.82-20.57-.56-1.16-.73-2.84-2.55-2.85-5.28,0-10.56,0-16.44,0,6.09,10.78,11.73,20.89,17.52,30.92a4.64,4.64,0,0,1,0,5.41c-5.51,9.35-10.85,18.8-16.2,28.24-.58,1-1.64,1.92-1.26,3.5,4.37,0,8.74-.19,13.09.06,2.8.16,4.19-.78,5.28-3.38,2.91-6.9,6.15-13.67,9.51-21,3.87,7.69,7.45,14.79,11,21.91.68,1.37,1.23,2.54,3.2,2.48C244.07,353.91,249.06,354,254,354ZM85.51,320.66c0,10,.08,20-.05,30,0,2.5.48,3.66,3.25,3.43a48.55,48.55,0,0,1,8.61,0c3,.28,3.56-.94,3.48-3.62-.18-5.87,0-11.74-.1-17.61,0-2.27.61-3.13,3-2.91a40.5,40.5,0,0,0,10.81-.68c12.58-2.16,19.82-10.37,19.8-22.47,0-11.28-6.83-18.76-19.59-20.62-9-1.32-18.19-.61-27.28.44-2.29.27-1.91,1.88-1.91,3.33Q85.51,305.29,85.51,320.66Zm-58.57-.23c0,10.12.09,20.24-.07,30.36,0,2.69.79,3.46,3.38,3.27a65.78,65.78,0,0,1,9,0c2.42.17,2.93-.82,2.89-3-.13-6,0-12-.08-18,0-2.35.47-3.42,3.11-3.12a38.66,38.66,0,0,0,10.45-.64c13.11-2.14,20.62-11,20.08-23.74-.46-11.06-8.71-18.72-21.56-19.68a132.24,132.24,0,0,0-24,.55c-2.55.27-3.33,1.09-3.3,3.64C27,300.18,26.93,310.31,26.94,320.43Zm130.41,6.07c0,8.24.05,16.49,0,24.74,0,2,.49,2.93,2.7,2.82a75.11,75.11,0,0,1,9.37,0c2.65.18,3.37-.75,3.35-3.36-.12-14.24-.06-28.49-.06-42.73,0-9,0-9,9-9,9.81,0,9.71,0,9.7-9.71,0-2.68-.83-3.35-3.4-3.32-13.12.11-26.24.05-39.37.05-10.12,0-10.06,0-9.61,10.26.1,2.15.84,2.8,2.89,2.75,4.12-.1,8.25.1,12.37-.07,2.47-.1,3.24.75,3.2,3.21C157.26,310.25,157.35,318.37,157.35,326.5Z"/><path class="cls-1" d="M89.67,221.55c-24.29-1-44.1-12.19-57.79-34.14-1.72-2.76-1.85-4,1.63-5.5,18.24-7.76,36.36-15.79,54.47-23.83,2.11-.93,3.69-1.09,5.79.25q25.42,16.17,51,32c2.76,1.7,2.45,2.8.71,4.91C131.41,212.38,113.32,221.16,89.67,221.55Z"/><path class="cls-1" d="M95.53,116.21c0-10,.1-20-.06-30,0-3,.85-3.47,3.67-3.21,47.74,4.53,76.46,55,56,98.29-1.46,3.09-2.6,3.53-5.61,1.6-16.93-10.83-34-21.47-51.06-32.06a5.49,5.49,0,0,1-3-5.4C95.61,135.7,95.53,126,95.53,116.21Z"/><path class="cls-1" d="M86.72,117.42c0,10,0,20,0,30,0,2.17-.6,3.33-2.68,4.24q-27.3,11.82-54.49,23.92c-2.5,1.12-3.15.3-3.9-1.9C12.55,135.15,38.25,91.8,78.44,84.79c8.28-1.44,8.28-1.44,8.28,6.76Z"/><path class="cls-1" d="M211.81,133.94c-11.23,0-22.47-.09-33.7.06-2.8,0-3.58-.76-3.54-3.57.13-7.72,0-7.73,7.56-7.73,21.34,0,42.68.06,64-.06,2.95,0,3.81.81,3.75,3.76-.15,7.54,0,7.54-7.39,7.54Z"/><path class="cls-1" d="M212.23,162.6c-11.48,0-23-.06-34.46,0-2.41,0-3.19-.64-3.19-3.15,0-8.13-.13-8.13,7.87-8.13,21.22,0,42.45,0,63.67-.06,2.87,0,3.86.65,3.79,3.69-.17,7.6,0,7.61-7.71,7.61Z"/><path class="cls-1" d="M212.22,190.64c-11.49,0-23-.07-34.48.05-2.43,0-3.16-.66-3.16-3.13,0-8.16-.11-8.16,7.86-8.16,21.24,0,42.47.06,63.71-.07,3,0,3.81.8,3.75,3.75-.14,7.56,0,7.56-7.7,7.56Z"/><path class="cls-1" d="M100.75,307.42a58.08,58.08,0,0,0,0-6.33c-.29-2.75.82-3.88,3.48-3.91a27.32,27.32,0,0,1,7,.42c4.89,1.22,7.49,4,7.89,8.63A10.22,10.22,0,0,1,113,316.79c-3.29,1.51-6.76,1.37-10.25,1.27-1.7,0-2.05-1-2-2.43C100.77,312.89,100.76,310.16,100.75,307.42Z"/><path class="cls-1" d="M42.09,307.74a45.7,45.7,0,0,0-.05-6c-.45-3.43.92-4.78,4.29-4.64a31.06,31.06,0,0,1,6.3.48c4.87,1.21,7.41,3.95,7.86,8.68a10.25,10.25,0,0,1-6.15,10.54c-3.3,1.48-6.78,1.33-10.27,1.22-1.7-.05-2-1.05-2-2.47C42.12,313,42.09,310.35,42.09,307.74Z"/></g></g></svg>