<svg xmlns="http://www.w3.org/2000/svg" viewBox="0 0 261.46 360.12"><defs><style>.cls-1{fill:lightcoral;}</style></defs><title>Asset 3</title><g id="Layer_2" data-name="Layer 2"><g id="Layer_1-2" data-name="Layer 1"><path class="cls-1" d="M11.21,360.12C2.72,357,0,350.8,0,342.05q.21-162.8.1-325.6C.1,7.69,4,2.05,11.29.4A19.46,19.46,0,0,1,15.47.05Q99.34,0,183.2,0a10.13,10.13,0,0,1,8.22,3.8q33.41,38.28,67,76.43a11.92,11.92,0,0,1,3.08,8.3q0,128.17,0,256.33c0,7.85-4.14,12.57-11.13,15.26ZM130.83,239.83q56.43,0,112.86.06c2.89,0,3.71-.73,3.7-3.67q-.13-69.61,0-139.23c0-2.74-.7-3.55-3.5-3.53-19,.12-38,.07-57,.06-6.64,0-9-2.46-9-9.17,0-22.15-.08-44.31.07-66.45,0-3.13-.78-3.85-3.86-3.84Q96,14.21,18,14.05c-3.2,0-3.82.93-3.82,3.93q.13,109,0,218c0,3.45,1.19,3.93,4.19,3.92Q74.57,239.76,130.83,239.83Zm-65.35,58.4c0,12.19,0,24.38,0,36.57,0,2.22.52,3.14,2.92,3,4.09-.18,8.21-.17,12.3,0,2.26.09,3-.56,3-2.92-.15-7.5,0-15-.11-22.5,0-2.49.31-3.39,3.2-3.17a45.17,45.17,0,0,0,20.68-3c11-4.49,16.76-14.13,15.82-26.3-.88-11.41-7.67-19.19-19.46-21.83-11.49-2.58-23.06-1.35-34.63-.39-2.94.25-3.83,1.27-3.78,4.3C65.6,274.09,65.48,286.16,65.48,298.23ZM196,257.31c-6.33,0-11.92.11-17.51-.05-2.23-.07-3.29.69-4.12,2.75-4.24,10.51-8.65,20.95-13,31.44-1-.54-1.1-1.72-1.49-2.65-4-9.59-8-19.21-12.06-28.81-.51-1.23-.68-2.72-2.67-2.7-6.18.08-12.37,0-18.54,0-.25,1.59.66,2.48,1.19,3.47,7.21,13.53,14.4,27.07,21.72,40.54a14.43,14.43,0,0,1,1.81,7.34c-.11,8.79,0,17.58-.09,26.36,0,2.16.66,2.86,2.79,2.8,4.22-.14,8.45-.18,12.66,0,2.43.11,2.89-.86,2.85-3-.11-7.14.27-14.31-.13-21.44a28.91,28.91,0,0,1,4.51-17.18C181.37,283.65,188.34,270.8,196,257.31Z"/><path class="cls-1" d="M150.91,173.28c-7.14,0-14.29,0-21.43,0-1.9,0-4.38-.53-4.27,2.64s2.57,2.52,4.46,2.53c8.08,0,16.16,0,24.24,0,4.43,0,4.87.48,4.74,4.83-.11,3.87-.19,7.73-.4,11.59-.29,5.23-2.94,8.73-7.9,10.51a59.88,59.88,0,0,1-22.45,3.25c-6.43-.22-12.87-.42-19.28-1.14-9.82-1.12-16.12-8-16.21-17.89q-.14-14.58,0-29.17c.09-11.52,6.13-17.56,17.55-17.64,10.08-.08,20.15,0,30.22-.09,7.9-.07,14.68-2.58,19.5-9.26a20.36,20.36,0,0,0,4-12.47c0-3.75,0-7.5,0-11.24,0-2,.79-3,2.9-3,3.51.1,7-.08,10.53.21,5.76.48,9.77,3.76,12.24,8.8,5.13,10.44,6.09,21.51,4.54,32.88a72.21,72.21,0,0,1-1.85,8.93,20.38,20.38,0,0,1-20,15.67C165,173.37,157.94,173.27,150.91,173.28Zm-6.55,26.36a7.11,7.11,0,0,0,6.72-6.78,6.61,6.61,0,0,0-6.43-6.52,6.54,6.54,0,0,0-6.87,6.4A7.1,7.1,0,0,0,144.36,199.64Z"/><path class="cls-1" d="M98,105.33h22.49c1.7,0,3.38,0,3.47-2.38s-1.58-2.8-3.47-2.8c-8.43,0-16.87.07-25.3,0-4.26,0-4.59-.4-4.55-4.62,0-3.28,0-6.56.12-9.84.19-7.51,3-11,10.2-13.22,11.59-3.66,23.4-2.46,35.19-1.79a45.93,45.93,0,0,1,7.3,1,16.7,16.7,0,0,1,13.35,16.34c.08,10.54.1,21.08,0,31.62-.09,9.52-6.67,16-16.21,16.13-10.54.1-21.08,0-31.62.12-8.64.07-15.7,3.2-20.44,10.78a19.69,19.69,0,0,0-2.86,11.39c.11,3.51,0,7,.06,10.54,0,2.15-.76,3.31-3.06,3.24-3.51-.11-7,0-10.53-.24-5.78-.48-9.74-3.83-12.24-8.83-4.93-9.84-5.78-20.39-4.74-31.15a74.45,74.45,0,0,1,1.76-9.31c2.43-10.66,10.22-16.93,21.06-17,6.68,0,13.36,0,20,0ZM111.4,85.87A7.08,7.08,0,0,0,104.83,79a6.85,6.85,0,0,0-6.64,6.76,6.42,6.42,0,0,0,6.34,6.52A6.52,6.52,0,0,0,111.4,85.87Z"/><path class="cls-1" d="M83.62,282.89c0-3.28,0-6.56,0-9.83,0-1.35.29-2.15,1.87-2.33a32.53,32.53,0,0,1,10.83.22,11,11,0,0,1,9,9.58,12.32,12.32,0,0,1-6.23,12.73c-4.2,2.25-8.74,2.35-13.34,2-1.58-.12-2.17-.9-2.12-2.51C83.69,289.45,83.62,286.17,83.62,282.89Z"/></g></g></svg>